<svg width="20" height="20" viewBox="0 0 20 20" fill="none" xmlns="http://www.w3.org/2000/svg">
<path d="M19.728 17.2914L15.8331 13.3973C15.6573 13.2215 15.4191 13.1238 15.1691 13.1238H14.5323C15.6105 11.7449 16.2511 10.0109 16.2511 8.12422C16.2511 3.63633 12.614 0 8.12574 0C3.63748 0 0 3.63633 0 8.12422C0 12.6121 3.63709 16.2484 8.12574 16.2484C10.0125 16.2484 11.7472 15.6078 13.1261 14.5297V15.1664C13.1261 15.4164 13.2238 15.6547 13.3995 15.8305L17.2944 19.7246C17.6616 20.0918 18.2554 20.0918 18.6187 19.7246L19.7241 18.6191C20.0913 18.252 20.0913 17.6586 19.728 17.2914ZM8.12574 13.7484C5.01873 13.7484 2.50077 11.2352 2.50077 8.12422C2.50077 5.01758 5.01443 2.5 8.12574 2.5C11.2328 2.5 13.7507 5.01328 13.7507 8.12422C13.7507 11.2309 11.2371 13.7484 8.12574 13.7484ZM8.12652 4.375C6.53356 4.375 5.24216 5.66602 5.24216 7.25898C5.24216 8.54648 7.12731 10.8938 7.84957 11.7457C7.88345 11.7862 7.92581 11.8188 7.97366 11.8412C8.02151 11.8636 8.0737 11.8752 8.12652 11.8752C8.17935 11.8752 8.23153 11.8636 8.27938 11.8412C8.32724 11.8188 8.3696 11.7862 8.40347 11.7457C9.12574 10.8938 11.0109 8.54688 11.0109 7.25898C11.0109 5.66602 9.71948 4.375 8.12652 4.375ZM8.12652 8.125C7.60856 8.125 7.18903 7.70508 7.18903 7.1875C7.18903 6.66953 7.60895 6.25 8.12652 6.25C8.6441 6.25 9.06402 6.66953 9.06402 7.1875C9.06402 7.70508 8.6441 8.125 8.12652 8.125Z" fill="#757575"/>
</svg>
