<svg width="20" height="20" viewBox="0 0 20 20" fill="none" xmlns="http://www.w3.org/2000/svg">
<path d="M13.5542 3.8587C11.4277 3.8587 9.67147 2.49999 6.99794 2.49999C6.00766 2.49999 5.1206 2.67124 4.29774 2.96925C4.41178 2.67607 4.46031 2.36215 4.44004 2.04886C4.36972 0.938073 3.44468 0.0470956 2.315 0.00186124C1.04544 -0.0489982 0 0.949049 0 2.18749C0 2.93069 0.376865 3.5869 0.952381 3.98222V19.0625C0.952381 19.5803 1.37877 20 1.90476 20H2.53968C3.06567 20 3.49206 19.5803 3.49206 19.0625V15.375C4.61552 14.9037 6.01516 14.5109 8.03314 14.5109C10.1596 14.5109 11.9158 15.8696 14.5894 15.8696C16.5008 15.8696 18.0285 15.2331 19.4507 14.2736C19.7952 14.0411 20 13.6551 20 13.2439V3.74784C20 2.83405 19.0369 2.22948 18.195 2.6144C16.8324 3.23737 15.1612 3.8587 13.5542 3.8587Z" fill="#757575"/>
</svg>
