<svg width="20" height="28" viewBox="0 0 20 28" fill="none" xmlns="http://www.w3.org/2000/svg">
<path d="M15.625 5.625C15.625 8.73047 13.1055 11.25 10 11.25C6.89453 11.25 4.375 8.73047 4.375 5.625C4.375 2.51953 6.89453 0 10 0C13.1055 0 15.625 2.51953 15.625 5.625Z" fill="#757575"/>
<path d="M12.8477 12.5H15C17.7617 12.5 20 14.7383 20 17.5V18.125C20 19.1602 19.1602 20 18.125 20H1.875C0.839844 20 0 19.1602 0 18.125V17.5C0 14.7383 2.23828 12.5 5 12.5H7.15234C8.02344 12.8984 8.98438 13.125 10 13.125C11.0156 13.125 11.9805 12.8984 12.8477 12.5Z" fill="#757575"/>
<path d="M2.67813 22.2092L1.9458 23.7606L0.307295 24.0102C0.0134633 24.0547 -0.104294 24.4331 0.10879 24.6499L1.29421 25.8568L1.01384 27.5617C0.963368 27.8698 1.27402 28.1007 1.53421 27.9565L3 27.1516L4.46579 27.9565C4.72598 28.0995 5.03663 27.8698 4.98617 27.5617L4.70579 25.8568L5.89121 24.6499C6.10429 24.4331 5.98654 24.0547 5.69271 24.0102L4.0542 23.7606L3.32187 22.2092C3.19065 21.9327 2.81047 21.9292 2.67813 22.2092Z" fill="#757575"/>
<path d="M9.67813 22.2092L8.9458 23.7606L7.30729 24.0102C7.01346 24.0547 6.89571 24.4331 7.10879 24.6499L8.29421 25.8568L8.01384 27.5617C7.96337 27.8698 8.27402 28.1007 8.53421 27.9565L10 27.1516L11.4658 27.9565C11.726 28.0995 12.0366 27.8698 11.9862 27.5617L11.7058 25.8568L12.8912 24.6499C13.1043 24.4331 12.9865 24.0547 12.6927 24.0102L11.0542 23.7606L10.3219 22.2092C10.1907 21.9327 9.81047 21.9292 9.67813 22.2092Z" fill="#757575"/>
<path d="M16.6781 22.2092L15.9458 23.7606L14.3073 24.0102C14.0135 24.0547 13.8957 24.4331 14.1088 24.6499L15.2942 25.8568L15.0138 27.5617C14.9634 27.8698 15.274 28.1007 15.5342 27.9565L17 27.1516L18.4658 27.9565C18.726 28.0995 19.0366 27.8698 18.9862 27.5617L18.7058 25.8568L19.8912 24.6499C20.1043 24.4331 19.9865 24.0547 19.6927 24.0102L18.0542 23.7606L17.3219 22.2092C17.1907 21.9327 16.8105 21.9292 16.6781 22.2092Z" fill="#757575"/>
</svg>
