<svg width="20" height="20" viewBox="0 0 20 20" fill="none" xmlns="http://www.w3.org/2000/svg">
<path d="M15.625 5.625C15.625 8.73047 13.1055 11.25 10 11.25C6.89453 11.25 4.375 8.73047 4.375 5.625C4.375 2.51953 6.89453 0 10 0C13.1055 0 15.625 2.51953 15.625 5.625Z" fill="#757575"/>
<path d="M12.8477 12.5H15C17.7617 12.5 20 14.7383 20 17.5V18.125C20 19.1602 19.1602 20 18.125 20H1.875C0.839844 20 0 19.1602 0 18.125V17.5C0 14.7383 2.23828 12.5 5 12.5H7.15234C8.02344 12.8984 8.98438 13.125 10 13.125C11.0156 13.125 11.9805 12.8984 12.8477 12.5Z" fill="#757575"/>
</svg>
