<svg width="237" height="53" viewBox="0 0 237 53" fill="none" xmlns="http://www.w3.org/2000/svg">
<path d="M38.7129 25.2748C38.3863 25.3289 38.0597 25.356 37.7331 25.356C33.5829 25.356 29.7184 26.6285 26.4934 28.8081C25.4593 24.097 22.8058 19.968 19.1318 17.0574C22.9419 14.5665 27.2963 12.8201 31.9908 12.0349C35.1613 15.8255 37.4882 20.347 38.7129 25.2748Z" fill="#161B45"/>
<path d="M25.3369 29.6341C24.6838 30.1485 24.0714 30.6765 23.4999 31.245C19.8532 34.8731 17.5807 39.8956 17.5807 45.3919C17.5399 47.2601 16.7507 48.9659 15.4988 50.1842C14.2469 51.4297 12.5596 52.1878 10.6409 52.1878C6.83087 52.1878 3.76921 49.1554 3.70117 45.4054V45.1753C3.78282 33.8984 9.40267 23.9212 18.0162 17.8292C21.7582 20.6586 24.4388 24.8282 25.3369 29.6341ZM37.7333 11.5342C36.2909 11.5342 34.8485 11.6154 33.4605 11.8049C36.5086 15.6226 38.7674 20.1035 39.9649 24.9771C42.7136 24.0565 44.6866 21.4844 44.6866 18.4384C44.6866 14.6072 41.5569 11.5342 37.7333 11.5342Z" fill="url(#paint0_linear_1_156)"/>
<path d="M39.6792 33.235C39.6792 36.7142 36.8624 39.53 33.3926 39.53C29.8546 39.53 26.9563 36.7006 26.9563 33.235C26.9563 31.7052 26.793 30.2296 26.4664 28.8082C25.4322 24.0971 22.7788 19.9681 19.1048 17.0575C15.5805 14.2687 11.1172 12.59 6.27301 12.59C2.81673 12.59 0 9.7742 0 6.29502C0 2.81584 2.81673 0 6.28662 0C16.601 0 25.8541 4.68404 31.9638 12.035C35.1615 15.8255 37.4884 20.3471 38.713 25.2884C39.3526 27.8199 39.6792 30.4868 39.6792 33.235Z" fill="url(#paint1_linear_1_156)"/>
<path d="M72.5547 26.3036C71.3437 24.7603 68.908 24.0293 67.071 24.0293C64.9346 24.0293 61.9682 24.9905 61.9682 27.5491C61.9682 33.7764 77.7936 29.7692 77.7936 41.7501C77.7936 49.3853 71.6294 52.9999 64.54 52.9999C60.1176 52.9999 56.2395 51.7003 52.9873 48.6949L58.3758 42.806C59.9271 44.8367 62.4581 46.0415 64.9754 46.0415C67.452 46.0415 70.2143 44.8773 70.2143 42.4676C70.2143 36.1861 54.1031 39.5705 54.1031 28.1718C54.1031 20.875 60.4578 17.0574 67.207 17.0574C71.0851 17.0574 74.8272 18.0727 77.7392 20.6313L72.5547 26.3036Z" fill="white"/>
<path d="M90.081 24.6115H80.2837V17.9509H107.471V24.6115H97.6603V52.1336H90.081V24.6115Z" fill="white"/>
<path d="M111.295 17.9373H124.603C131.638 17.9373 137.557 20.347 137.557 28.3207C137.557 33.0995 134.985 36.8223 130.127 37.6887L138.863 52.1334H129.787L122.603 38.4604H118.861V52.1334H111.281V17.9373H111.295ZM118.874 32.0977H123.337C126.1 32.0977 129.692 32.0029 129.692 28.28C129.692 24.855 126.59 24.3135 123.814 24.3135H118.861V32.0977H118.874Z" fill="white"/>
<path d="M156.022 17.9373H162.282L177.236 52.1334H168.691L165.724 44.8908H152.376L149.518 52.1334H141.163L156.022 17.9373ZM158.934 27.8874L154.757 38.5145H163.153L158.934 27.8874Z" fill="white"/>
<path d="M201.226 26.8316C199.716 25.0446 197.539 24.0293 194.722 24.0293C188.993 24.0293 184.775 28.6592 184.775 35.0354C184.775 41.4117 188.993 46.0415 194.491 46.0415C197.552 46.0415 200.029 44.6878 201.58 42.3728L207.894 47.0569C205.036 51.1182 200.178 52.9999 195.47 52.9999C184.748 52.9999 176.923 46.0009 176.923 35.0354C176.923 24.0699 184.734 17.0709 195.47 17.0709C199.308 17.0709 204.165 18.3705 207.077 22.0934L201.226 26.8316Z" fill="white"/>
<path d="M219.623 24.6115H209.812V17.9509H237V24.6115H227.189V52.1336H219.61V24.6115H219.623Z" fill="white"/>
<defs>
<linearGradient id="paint0_linear_1_156" x1="3.69042" y1="31.8596" x2="44.6847" y2="31.8596" gradientUnits="userSpaceOnUse">
<stop stop-color="#25D7FB"/>
<stop offset="1" stop-color="#DF8FEE"/>
</linearGradient>
<linearGradient id="paint1_linear_1_156" x1="0" y1="19.7658" x2="39.6852" y2="19.7658" gradientUnits="userSpaceOnUse">
<stop stop-color="#25D7FB"/>
<stop offset="1" stop-color="#DF8FEE"/>
</linearGradient>
</defs>
</svg>
